<svg xmlns="http://www.w3.org/2000/svg" viewBox="0 0 48 48" width="48" height="48">
  <path fill="#00f2ea" d="M39.1,14.5c-2.8-1.9-4.7-5-4.9-8.5h-7.3v23.8c0,3.3-2.7,6-6,6c-3.3,0-6-2.7-6-6s2.7-6,6-6c0.6,0,1.3,0.1,1.8,0.3V16.8c-0.6-0.1-1.2-0.1-1.8-0.1c-7.1,0-12.9,5.8-12.9,12.9s5.8,12.9,12.9,12.9s12.9-5.8,12.9-12.9V18.3c2.8,2,6.2,3.2,9.8,3.2v-7.3C41.9,14.2,40.4,14.5,39.1,14.5z"/>
  <path fill="#ff0050" d="M39.1,14.5c-2.8-1.9-4.7-5-4.9-8.5h-7.3v23.8c0,3.3-2.7,6-6,6c-3.3,0-6-2.7-6-6s2.7-6,6-6c0.6,0,1.3,0.1,1.8,0.3V16.8c-0.6-0.1-1.2-0.1-1.8-0.1c-7.1,0-12.9,5.8-12.9,12.9s5.8,12.9,12.9,12.9s12.9-5.8,12.9-12.9V18.3c2.8,2,6.2,3.2,9.8,3.2v-7.3C41.9,14.2,40.4,14.5,39.1,14.5z" opacity="0.5"/>
  <path fill="#000000" d="M34.2,6h7.3c0.2,3.5,2.1,6.6,4.9,8.5c1.3,0,2.8-0.3,4.5-0.3v7.3c-3.6,0-7-1.2-9.8-3.2v11.3c0,7.1-5.8,12.9-12.9,12.9S15.3,37,15.3,29.6s5.8-12.9,12.9-12.9c0.6,0,1.2,0,1.8,0.1v7.3c-0.5-0.2-1.2-0.3-1.8-0.3c-3.3,0-6,2.7-6,6s2.7,6,6,6c3.3,0,6-2.7,6-6V6z" opacity="0.05"/>
</svg>
